# xmcd
#
# Track frame offsets:
#	150
#	17717
#	31154
#	44719
#
# Disc length: 888 seconds
#
# Revision: 0
# Processed by: cddbd v1.5.2PL0 Copyright (c) Steve Scherf et al.
# Submitted via: dBpowerAMP V4.0
#
DISCID=2b037604
DTITLE=Pete Molinari - Streetcar Named Desire EP
DYEAR=2010
DGENRE=
TTITLE0=Streetcar Named Desire
TTITLE1=A Walk In The Park
TTITLE2=Heartaches Aplenty
TTITLE3=No Traces Of You
EXTD=
EXTT0=
EXTT1=
EXTT2=
EXTT3=
PLAYORDER=
